<mxfile host="app.diagrams.net" agent="Mozilla/5.0 (Windows NT 10.0; Win64; x64) AppleWebKit/537.36 (KHTML, like Gecko) Chrome/132.0.0.0 Safari/537.36" version="26.0.10">
  <diagram id="CIRCUIT1" name="Page-1">
    <mxGraphModel dx="1812" dy="425" grid="1" gridSize="10" guides="1" tooltips="1" connect="1" arrows="1" fold="1" page="1" pageScale="1" pageWidth="827" pageHeight="1169" math="0" shadow="0">
      <root>
        <mxCell id="0" />
        <mxCell id="1" parent="0" />
        <mxCell id="GCzcFtR1vVP85rP0J6uP-6" value="" style="edgeStyle=orthogonalEdgeStyle;rounded=0;orthogonalLoop=1;jettySize=auto;html=1;entryX=0.175;entryY=0.25;entryDx=0;entryDy=0;entryPerimeter=0;" parent="1" source="input_a" target="gjwOWWngpQHkr5YD_q45-1" edge="1">
          <mxGeometry relative="1" as="geometry">
            <mxPoint x="180" y="150" as="targetPoint" />
            <Array as="points">
              <mxPoint x="181" y="130" />
            </Array>
          </mxGeometry>
        </mxCell>
        <mxCell id="input_a" value="a" style="ellipse;whiteSpace=wrap;html=1;" parent="1" vertex="1">
          <mxGeometry x="50" y="110" width="40" height="40" as="geometry" />
        </mxCell>
        <mxCell id="input_b" value="b" style="ellipse;whiteSpace=wrap;html=1;" parent="1" vertex="1">
          <mxGeometry x="50" y="160" width="40" height="40" as="geometry" />
        </mxCell>
        <mxCell id="input_c" value="c" style="ellipse;whiteSpace=wrap;html=1;" parent="1" vertex="1">
          <mxGeometry x="50" y="25" width="40" height="40" as="geometry" />
        </mxCell>
        <mxCell id="output_x" value="x" style="ellipse;whiteSpace=wrap;html=1;" parent="1" vertex="1">
          <mxGeometry x="580" y="40" width="40" height="40" as="geometry" />
        </mxCell>
        <mxCell id="output_y" value="y" style="ellipse;whiteSpace=wrap;html=1;" parent="1" vertex="1">
          <mxGeometry x="580" y="195" width="40" height="40" as="geometry" />
        </mxCell>
        <mxCell id="GCzcFtR1vVP85rP0J6uP-5" style="edgeStyle=orthogonalEdgeStyle;rounded=0;orthogonalLoop=1;jettySize=auto;html=1;exitX=0.5;exitY=1;exitDx=0;exitDy=0;" parent="1" edge="1">
          <mxGeometry relative="1" as="geometry">
            <mxPoint x="280" y="270" as="sourcePoint" />
            <mxPoint x="280" y="270" as="targetPoint" />
          </mxGeometry>
        </mxCell>
        <mxCell id="GCzcFtR1vVP85rP0J6uP-7" style="edgeStyle=orthogonalEdgeStyle;rounded=0;orthogonalLoop=1;jettySize=auto;html=1;entryX=0.175;entryY=0.75;entryDx=0;entryDy=0;entryPerimeter=0;" parent="1" source="input_b" target="gjwOWWngpQHkr5YD_q45-1" edge="1">
          <mxGeometry relative="1" as="geometry">
            <mxPoint x="180" y="160" as="targetPoint" />
            <Array as="points">
              <mxPoint x="120" y="170" />
              <mxPoint x="120" y="170" />
            </Array>
          </mxGeometry>
        </mxCell>
        <mxCell id="GCzcFtR1vVP85rP0J6uP-17" value="" style="verticalLabelPosition=bottom;shadow=0;dashed=0;align=center;html=1;verticalAlign=top;shape=mxgraph.electrical.logic_gates.logic_gate;operation=and;negating=1;negSize=0.15;" parent="1" vertex="1">
          <mxGeometry x="110" y="330" width="90" height="50" as="geometry" />
        </mxCell>
        <mxCell id="gjwOWWngpQHkr5YD_q45-1" value="" style="shape=xor;whiteSpace=wrap;html=1;" vertex="1" parent="1">
          <mxGeometry x="170" y="110" width="60" height="80" as="geometry" />
        </mxCell>
        <mxCell id="gjwOWWngpQHkr5YD_q45-14" style="edgeStyle=orthogonalEdgeStyle;rounded=0;orthogonalLoop=1;jettySize=auto;html=1;exitX=1;exitY=0.5;exitDx=0;exitDy=0;exitPerimeter=0;entryX=0;entryY=0.5;entryDx=0;entryDy=0;" edge="1" parent="1" source="gjwOWWngpQHkr5YD_q45-2" target="output_x">
          <mxGeometry relative="1" as="geometry" />
        </mxCell>
        <mxCell id="gjwOWWngpQHkr5YD_q45-2" value="" style="verticalLabelPosition=bottom;shadow=0;dashed=0;align=center;html=1;verticalAlign=top;shape=mxgraph.electrical.logic_gates.logic_gate;operation=xor;" vertex="1" parent="1">
          <mxGeometry x="440" y="30" width="100" height="60" as="geometry" />
        </mxCell>
        <mxCell id="gjwOWWngpQHkr5YD_q45-3" value="" style="verticalLabelPosition=bottom;shadow=0;dashed=0;align=center;html=1;verticalAlign=top;shape=mxgraph.electrical.logic_gates.inverter_2" vertex="1" parent="1">
          <mxGeometry x="160" y="20" width="80" height="50" as="geometry" />
        </mxCell>
        <mxCell id="gjwOWWngpQHkr5YD_q45-4" style="edgeStyle=orthogonalEdgeStyle;rounded=0;orthogonalLoop=1;jettySize=auto;html=1;exitX=1;exitY=0.5;exitDx=0;exitDy=0;entryX=0;entryY=0.5;entryDx=0;entryDy=0;entryPerimeter=0;" edge="1" parent="1" source="input_c" target="gjwOWWngpQHkr5YD_q45-3">
          <mxGeometry relative="1" as="geometry" />
        </mxCell>
        <mxCell id="gjwOWWngpQHkr5YD_q45-5" style="edgeStyle=orthogonalEdgeStyle;rounded=0;orthogonalLoop=1;jettySize=auto;html=1;exitX=1;exitY=0.5;exitDx=0;exitDy=0;exitPerimeter=0;entryX=0;entryY=0.25;entryDx=0;entryDy=0;entryPerimeter=0;" edge="1" parent="1" source="gjwOWWngpQHkr5YD_q45-3" target="gjwOWWngpQHkr5YD_q45-2">
          <mxGeometry relative="1" as="geometry" />
        </mxCell>
        <mxCell id="gjwOWWngpQHkr5YD_q45-12" style="edgeStyle=orthogonalEdgeStyle;rounded=0;orthogonalLoop=1;jettySize=auto;html=1;exitX=0;exitY=0.5;exitDx=0;exitDy=0;entryX=0;entryY=0.25;entryDx=0;entryDy=0;entryPerimeter=0;" edge="1" parent="1" source="input_a" target="GCzcFtR1vVP85rP0J6uP-17">
          <mxGeometry relative="1" as="geometry" />
        </mxCell>
        <mxCell id="gjwOWWngpQHkr5YD_q45-15" value="" style="verticalLabelPosition=bottom;shadow=0;dashed=0;align=center;html=1;verticalAlign=top;shape=mxgraph.electrical.logic_gates.logic_gate;operation=xor;" vertex="1" parent="1">
          <mxGeometry x="280" y="310" width="100" height="60" as="geometry" />
        </mxCell>
        <mxCell id="gjwOWWngpQHkr5YD_q45-19" style="edgeStyle=orthogonalEdgeStyle;rounded=0;orthogonalLoop=1;jettySize=auto;html=1;exitX=1;exitY=0.5;exitDx=0;exitDy=0;exitPerimeter=0;entryX=0;entryY=0.5;entryDx=0;entryDy=0;" edge="1" parent="1" source="gjwOWWngpQHkr5YD_q45-18" target="output_y">
          <mxGeometry relative="1" as="geometry" />
        </mxCell>
        <mxCell id="gjwOWWngpQHkr5YD_q45-18" value="" style="shape=or;whiteSpace=wrap;html=1;" vertex="1" parent="1">
          <mxGeometry x="460" y="190" width="60" height="50" as="geometry" />
        </mxCell>
        <mxCell id="gjwOWWngpQHkr5YD_q45-20" style="edgeStyle=orthogonalEdgeStyle;rounded=0;orthogonalLoop=1;jettySize=auto;html=1;exitX=1;exitY=0.5;exitDx=0;exitDy=0;exitPerimeter=0;entryX=0;entryY=0.75;entryDx=0;entryDy=0;entryPerimeter=0;" edge="1" parent="1" source="gjwOWWngpQHkr5YD_q45-15" target="gjwOWWngpQHkr5YD_q45-18">
          <mxGeometry relative="1" as="geometry" />
        </mxCell>
        <mxCell id="gjwOWWngpQHkr5YD_q45-22" style="edgeStyle=orthogonalEdgeStyle;rounded=0;orthogonalLoop=1;jettySize=auto;html=1;exitX=0.7;exitY=0.9;exitDx=0;exitDy=0;exitPerimeter=0;entryX=0;entryY=0.25;entryDx=0;entryDy=0;entryPerimeter=0;" edge="1" parent="1" source="gjwOWWngpQHkr5YD_q45-1" target="gjwOWWngpQHkr5YD_q45-15">
          <mxGeometry relative="1" as="geometry" />
        </mxCell>
        <mxCell id="gjwOWWngpQHkr5YD_q45-24" style="edgeStyle=orthogonalEdgeStyle;rounded=0;orthogonalLoop=1;jettySize=auto;html=1;exitX=0;exitY=0.5;exitDx=0;exitDy=0;entryX=0;entryY=0.75;entryDx=0;entryDy=0;entryPerimeter=0;" edge="1" parent="1" source="input_b" target="GCzcFtR1vVP85rP0J6uP-17">
          <mxGeometry relative="1" as="geometry">
            <Array as="points">
              <mxPoint y="180" />
              <mxPoint y="368" />
            </Array>
          </mxGeometry>
        </mxCell>
        <mxCell id="gjwOWWngpQHkr5YD_q45-25" style="edgeStyle=orthogonalEdgeStyle;rounded=0;orthogonalLoop=1;jettySize=auto;html=1;exitX=1;exitY=0.5;exitDx=0;exitDy=0;exitPerimeter=0;entryX=0;entryY=0.75;entryDx=0;entryDy=0;entryPerimeter=0;" edge="1" parent="1" source="GCzcFtR1vVP85rP0J6uP-17" target="gjwOWWngpQHkr5YD_q45-15">
          <mxGeometry relative="1" as="geometry" />
        </mxCell>
        <mxCell id="gjwOWWngpQHkr5YD_q45-33" style="edgeStyle=orthogonalEdgeStyle;rounded=0;orthogonalLoop=1;jettySize=auto;html=1;exitX=1;exitY=0.5;exitDx=0;exitDy=0;entryX=0;entryY=0.25;entryDx=0;entryDy=0;" edge="1" parent="1" source="gjwOWWngpQHkr5YD_q45-27" target="gjwOWWngpQHkr5YD_q45-32">
          <mxGeometry relative="1" as="geometry">
            <Array as="points">
              <mxPoint x="360" y="150" />
              <mxPoint x="360" y="208" />
            </Array>
          </mxGeometry>
        </mxCell>
        <mxCell id="gjwOWWngpQHkr5YD_q45-27" value="OR" style="text;html=1;align=center;verticalAlign=middle;whiteSpace=wrap;rounded=0;" vertex="1" parent="1">
          <mxGeometry x="170" y="135" width="60" height="30" as="geometry" />
        </mxCell>
        <mxCell id="gjwOWWngpQHkr5YD_q45-28" value="NOT" style="text;html=1;align=center;verticalAlign=middle;whiteSpace=wrap;rounded=0;" vertex="1" parent="1">
          <mxGeometry x="160" y="30" width="60" height="30" as="geometry" />
        </mxCell>
        <mxCell id="gjwOWWngpQHkr5YD_q45-29" value="NAND" style="text;html=1;align=center;verticalAlign=middle;whiteSpace=wrap;rounded=0;" vertex="1" parent="1">
          <mxGeometry x="125" y="340" width="60" height="30" as="geometry" />
        </mxCell>
        <mxCell id="gjwOWWngpQHkr5YD_q45-30" value="XOR" style="text;html=1;align=center;verticalAlign=middle;whiteSpace=wrap;rounded=0;" vertex="1" parent="1">
          <mxGeometry x="300" y="325" width="60" height="30" as="geometry" />
        </mxCell>
        <mxCell id="gjwOWWngpQHkr5YD_q45-31" value="XOR" style="text;html=1;align=center;verticalAlign=middle;whiteSpace=wrap;rounded=0;" vertex="1" parent="1">
          <mxGeometry x="460" y="45" width="60" height="30" as="geometry" />
        </mxCell>
        <mxCell id="gjwOWWngpQHkr5YD_q45-32" value="AND" style="text;html=1;align=center;verticalAlign=middle;whiteSpace=wrap;rounded=0;" vertex="1" parent="1">
          <mxGeometry x="460" y="200" width="60" height="30" as="geometry" />
        </mxCell>
        <mxCell id="gjwOWWngpQHkr5YD_q45-34" style="edgeStyle=orthogonalEdgeStyle;rounded=0;orthogonalLoop=1;jettySize=auto;html=1;exitX=0.7;exitY=0.1;exitDx=0;exitDy=0;exitPerimeter=0;entryX=0;entryY=0.75;entryDx=0;entryDy=0;entryPerimeter=0;" edge="1" parent="1" source="gjwOWWngpQHkr5YD_q45-1" target="gjwOWWngpQHkr5YD_q45-2">
          <mxGeometry relative="1" as="geometry">
            <Array as="points">
              <mxPoint x="360" y="118" />
              <mxPoint x="360" y="75" />
            </Array>
          </mxGeometry>
        </mxCell>
      </root>
    </mxGraphModel>
  </diagram>
</mxfile>
